# xmcd
#
# Track frame offsets:
#	150
#	13142
#	28212
#	50261
#	69439
#	82777
#	97533
#	113391
#	125096
#	136445
#	146480
#	164686
#	174583
#	185392
#	199439
#	211572
#
# Disc length: 2943 seconds
#
# Revision: 1
# Processed by: cddbd v1.5.2PL0 Copyright (c) Steve Scherf et al.
# Submitted via: audiograbber 1.83.01
#
DISCID=d50b7d10
DTITLE=Wayne Horsburgh - A Salute To Marty Robbins
DYEAR=2010
DGENRE=Country
TTITLE0=Tonight Carmen
TTITLE1=Don't Worry
TTITLE2=El Paso
TTITLE3=El Paso City
TTITLE4=Lovely Hula Hands
TTITLE5=Devil Woman
TTITLE6=A Christmas Prayer
TTITLE7=The Story Of My Life
TTITLE8=Singing The Blues
TTITLE9=Love Song Of Kalua
TTITLE10=Big Iron
TTITLE11=Just Married
TTITLE12=A White Sports Coat
TTITLE13=Beyond The Reef
TTITLE14=Ribbon Of Darkness
TTITLE15=Don't Sing Aloha When I Go
EXTD=
EXTT0=
EXTT1=
EXTT2=
EXTT3=
EXTT4=
EXTT5=
EXTT6=
EXTT7=
EXTT8=
EXTT9=
EXTT10=
EXTT11=
EXTT12=
EXTT13=
EXTT14=
EXTT15=
PLAYORDER=
